<mxfile host="Electron" modified="2023-11-11T18:55:35.076Z" agent="Mozilla/5.0 (Macintosh; Intel Mac OS X 10_15_7) AppleWebKit/537.36 (KHTML, like Gecko) draw.io/22.0.3 Chrome/114.0.5735.289 Electron/25.8.4 Safari/537.36" etag="4sjuqMNvIzjjcWGhN6YL" version="22.0.3" type="device">
  <diagram name="Page-1" id="HGh0PXmJIbZJKvs0rOXy">
    <mxGraphModel dx="1514" dy="1242" grid="0" gridSize="10" guides="1" tooltips="1" connect="1" arrows="1" fold="1" page="0" pageScale="1" pageWidth="850" pageHeight="1100" math="0" shadow="0">
      <root>
        <mxCell id="0" />
        <mxCell id="1" parent="0" />
        <mxCell id="09VVPDm4Sv6W_C7SXTdY-14" style="edgeStyle=none;curved=1;rounded=0;orthogonalLoop=1;jettySize=auto;html=1;entryX=1;entryY=0.25;entryDx=0;entryDy=0;fontSize=12;startSize=8;endSize=8;" edge="1" parent="1" source="09VVPDm4Sv6W_C7SXTdY-2">
          <mxGeometry relative="1" as="geometry">
            <mxPoint x="-119" y="-81.25" as="targetPoint" />
          </mxGeometry>
        </mxCell>
        <mxCell id="09VVPDm4Sv6W_C7SXTdY-2" value="remove itme from queue" style="text;strokeColor=none;fillColor=none;align=left;verticalAlign=middle;spacingLeft=4;spacingRight=4;overflow=hidden;points=[[0,0.5],[1,0.5]];portConstraint=eastwest;rotatable=0;whiteSpace=wrap;html=1;fontSize=16;" vertex="1" parent="1">
          <mxGeometry x="-14" y="-146" width="134" height="79" as="geometry" />
        </mxCell>
        <mxCell id="09VVPDm4Sv6W_C7SXTdY-8" style="edgeStyle=none;curved=1;rounded=0;orthogonalLoop=1;jettySize=auto;html=1;fontSize=12;startSize=8;endSize=8;entryX=0.5;entryY=0.038;entryDx=0;entryDy=0;entryPerimeter=0;" edge="1" parent="1" source="09VVPDm4Sv6W_C7SXTdY-3" target="09VVPDm4Sv6W_C7SXTdY-9">
          <mxGeometry relative="1" as="geometry">
            <mxPoint x="240" y="42" as="targetPoint" />
          </mxGeometry>
        </mxCell>
        <mxCell id="09VVPDm4Sv6W_C7SXTdY-3" value="process and filter content" style="icon;html=1;image=img/clipart/Gear_128x128.png;fontSize=16;" vertex="1" parent="1">
          <mxGeometry x="204" y="-81.5" width="60" height="60" as="geometry" />
        </mxCell>
        <mxCell id="09VVPDm4Sv6W_C7SXTdY-6" value="data store" style="shape=cylinder3;whiteSpace=wrap;html=1;boundedLbl=1;backgroundOutline=1;size=15;fontSize=16;fillColor=#fad7ac;strokeColor=#b46504;" vertex="1" parent="1">
          <mxGeometry x="223" y="203" width="94" height="80" as="geometry" />
        </mxCell>
        <mxCell id="09VVPDm4Sv6W_C7SXTdY-9" value="save result" style="ellipse;whiteSpace=wrap;html=1;fontSize=16;" vertex="1" parent="1">
          <mxGeometry x="174" y="42" width="120" height="80" as="geometry" />
        </mxCell>
        <mxCell id="09VVPDm4Sv6W_C7SXTdY-23" style="edgeStyle=none;curved=1;rounded=0;orthogonalLoop=1;jettySize=auto;html=1;entryX=0;entryY=0.5;entryDx=0;entryDy=0;fontSize=12;startSize=8;endSize=8;" edge="1" parent="1" source="09VVPDm4Sv6W_C7SXTdY-10" target="09VVPDm4Sv6W_C7SXTdY-3">
          <mxGeometry relative="1" as="geometry">
            <Array as="points">
              <mxPoint x="-2" y="-35" />
            </Array>
          </mxGeometry>
        </mxCell>
        <mxCell id="09VVPDm4Sv6W_C7SXTdY-10" value="download content" style="html=1;whiteSpace=wrap;container=1;recursiveResize=0;collapsible=0;fontSize=16;fillColor=#647687;fontColor=#ffffff;strokeColor=#314354;" vertex="1" parent="1">
          <mxGeometry x="-117" y="72" width="245" height="70" as="geometry" />
        </mxCell>
        <mxCell id="09VVPDm4Sv6W_C7SXTdY-11" value="" style="triangle;html=1;whiteSpace=wrap;fontSize=16;" vertex="1" parent="09VVPDm4Sv6W_C7SXTdY-10">
          <mxGeometry x="20" y="20" width="20" height="30" as="geometry" />
        </mxCell>
        <mxCell id="09VVPDm4Sv6W_C7SXTdY-15" style="edgeStyle=none;curved=1;rounded=0;orthogonalLoop=1;jettySize=auto;html=1;entryX=0.993;entryY=0.43;entryDx=0;entryDy=0;entryPerimeter=0;fontSize=12;startSize=8;endSize=8;" edge="1" parent="1" source="09VVPDm4Sv6W_C7SXTdY-9" target="09VVPDm4Sv6W_C7SXTdY-2">
          <mxGeometry relative="1" as="geometry">
            <Array as="points">
              <mxPoint x="522" y="-106" />
            </Array>
          </mxGeometry>
        </mxCell>
        <mxCell id="09VVPDm4Sv6W_C7SXTdY-16" value="URLs queue" style="shape=note;whiteSpace=wrap;html=1;backgroundOutline=1;darkOpacity=0.05;fontSize=16;fillColor=#6d8764;fontColor=#ffffff;strokeColor=#3A5431;" vertex="1" parent="1">
          <mxGeometry x="-238" y="-132" width="118" height="96" as="geometry" />
        </mxCell>
        <mxCell id="09VVPDm4Sv6W_C7SXTdY-18" value="" style="shape=flexArrow;endArrow=classic;html=1;rounded=0;fontSize=12;startSize=8;endSize=8;curved=1;" edge="1" parent="1">
          <mxGeometry width="50" height="50" relative="1" as="geometry">
            <mxPoint x="-189" y="88" as="sourcePoint" />
            <mxPoint x="-187" y="211" as="targetPoint" />
          </mxGeometry>
        </mxCell>
        <mxCell id="09VVPDm4Sv6W_C7SXTdY-19" value="send request" style="text;strokeColor=none;fillColor=none;align=left;verticalAlign=middle;spacingLeft=4;spacingRight=4;overflow=hidden;points=[[0,0.5],[1,0.5]];portConstraint=eastwest;rotatable=0;whiteSpace=wrap;html=1;fontSize=16;" vertex="1" parent="1">
          <mxGeometry x="-242" y="32" width="111" height="42" as="geometry" />
        </mxCell>
        <mxCell id="09VVPDm4Sv6W_C7SXTdY-20" value="web" style="ellipse;shape=cloud;whiteSpace=wrap;html=1;fontSize=16;fillColor=#60a917;fontColor=#ffffff;strokeColor=#2D7600;" vertex="1" parent="1">
          <mxGeometry x="-245" y="224" width="218" height="80" as="geometry" />
        </mxCell>
        <mxCell id="09VVPDm4Sv6W_C7SXTdY-21" value="" style="shape=flexArrow;endArrow=classic;html=1;rounded=0;fontSize=12;startSize=8;endSize=8;curved=1;" edge="1" parent="1">
          <mxGeometry width="50" height="50" relative="1" as="geometry">
            <mxPoint x="-89" y="217" as="sourcePoint" />
            <mxPoint x="-39" y="167" as="targetPoint" />
          </mxGeometry>
        </mxCell>
        <mxCell id="09VVPDm4Sv6W_C7SXTdY-22" style="edgeStyle=none;curved=1;rounded=0;orthogonalLoop=1;jettySize=auto;html=1;entryX=0;entryY=0;entryDx=0;entryDy=52.5;entryPerimeter=0;fontSize=12;startSize=8;endSize=8;" edge="1" parent="1" source="09VVPDm4Sv6W_C7SXTdY-9" target="09VVPDm4Sv6W_C7SXTdY-6">
          <mxGeometry relative="1" as="geometry">
            <Array as="points">
              <mxPoint x="163" y="245" />
            </Array>
          </mxGeometry>
        </mxCell>
      </root>
    </mxGraphModel>
  </diagram>
</mxfile>
